<svg width="112" height="109" viewBox="0 0 112 109" fill="none" xmlns="http://www.w3.org/2000/svg">
<path d="M47.8296 94.2475L16.8918 42.097C13.135 35.7644 17.6991 27.75 25.0623 27.75H86.9377C94.3009 27.75 98.865 35.7644 95.1082 42.097L64.1704 94.2475C60.49 100.451 51.51 100.451 47.8296 94.2475Z" fill="#6366F1" stroke="#6366F1"/>
<path d="M49.2705 62.32C47.9905 61.48 46.8905 60.26 45.9705 58.66C45.0905 57.06 44.6505 54.98 44.6505 52.42C44.6505 49.86 45.3505 47.58 46.7505 45.58C48.1905 43.54 50.2105 42.2 52.8105 41.56V35.92H60.7305V41.32C62.7305 41.48 64.9705 41.78 67.4505 42.22L66.2505 51.82C62.2905 50.9 59.5705 50.44 58.0905 50.44C56.2105 50.44 55.2705 51.2 55.2705 52.72C55.2705 53.32 55.7105 53.9 56.5905 54.46C57.5105 55.02 58.6105 55.62 59.8905 56.26C61.1705 56.86 62.4505 57.6 63.7305 58.48C65.0105 59.32 66.0905 60.54 66.9705 62.14C67.8905 63.74 68.3505 65.82 68.3505 68.38C68.3505 70.9 67.6905 73.16 66.3705 75.16C65.0905 77.12 63.2105 78.42 60.7305 79.06V83.74H52.8105V79.42C50.2505 79.14 47.8705 78.62 45.6705 77.86L46.3305 68.92C50.6105 70.16 53.5905 70.78 55.2705 70.78C56.9505 70.78 57.7905 70.04 57.7905 68.56C57.7905 67.8 57.3305 67.1 56.4105 66.46C55.5305 65.82 54.4505 65.18 53.1705 64.54C51.8905 63.9 50.5905 63.16 49.2705 62.32Z" fill="white"/>
</svg>
